<?xml version="1.0" standalone="no"?>
<!DOCTYPE svg PUBLIC "-//W3C//DTD SVG 20010904//EN"
 "http://www.w3.org/TR/2001/REC-SVG-20010904/DTD/svg10.dtd">
<svg version="1.0" xmlns="http://www.w3.org/2000/svg"
 width="300.000000pt" height="300.000000pt" viewBox="0 0 300.000000 300.000000"
 preserveAspectRatio="xMidYMid meet">
<metadata>
Created by potrace 1.11, written by Peter Selinger 2001-2013
</metadata>
<g transform="translate(0.000000,300.000000) scale(0.100000,-0.100000)"
fill="#000000" stroke="none">
<path d="M0 1500 l0 -1500 1500 0 1500 0 0 1500 0 1500 -1500 0 -1500 0 0
-1500z m1735 804 c62 -16 188 -75 216 -100 25 -23 29 -17 29 46 l0 60 90 0 90
0 0 -240 0 -240 -77 0 -78 0 -24 56 c-35 81 -108 156 -192 198 -93 47 -162 59
-289 54 -239 -11 -420 -129 -526 -343 -144 -290 -65 -632 190 -830 121 -94
246 -135 411 -135 163 0 307 51 428 153 l49 40 60 -60 c40 -40 59 -66 55 -76
-11 -30 -123 -108 -222 -157 -140 -69 -209 -84 -380 -84 -123 1 -151 4 -230
28 -285 86 -504 306 -585 586 -30 101 -38 306 -17 405 70 330 309 577 627 646
102 23 280 19 375 -7z"/>
</g>
</svg>
